<?xml version="1.0" encoding="UTF-8"?>
<!DOCTYPE svg PUBLIC "-//W3C//DTD SVG 1.1//EN" "http://www.w3.org/Graphics/SVG/1.1/DTD/svg11.dtd">
<svg version="1.1" xmlns="http://www.w3.org/2000/svg" xmlns:xlink="http://www.w3.org/1999/xlink" x="0" y="0" width="1024" height="1024" viewBox="0, 0, 1024, 1024">
  <defs>
    <linearGradient id="Gradient_1" gradientUnits="userSpaceOnUse" x1="512" y1="0.003" x2="512" y2="1023.997">
      <stop offset="0" stop-color="#FFF2CF"/>
      <stop offset="0.565" stop-color="#FEFFFA"/>
      <stop offset="1" stop-color="#FEFFFA"/>
    </linearGradient>
  </defs>
  <g id="Layer_1">
    <path d="M1024,671.386 C1024,719.585 998.287,764.129 956.539,788.224 L579.451,1005.926 C537.723,1030.021 486.298,1030.021 444.549,1005.926 L67.461,788.214 C25.733,764.129 0,719.585 0,671.386 L0,352.614 C0,304.415 25.713,259.871 67.461,235.776 L444.549,18.074 C486.277,-6.021 537.702,-6.021 579.451,18.074 L956.539,235.786 C998.267,259.871 1024,304.415 1024,352.614 L1024,671.386 z M472.259,66.089 L95.171,283.791 C70.666,297.933 55.429,324.311 55.429,352.614 L55.45,623.462 C133.54,528.353 211.62,433.249 289.71,338.14 C301.325,324.588 317.255,324.588 330.301,338.15 C416.795,443.528 546.536,601.594 719.524,812.349 L556.271,587.162 L657.275,465.377 C665.979,454.779 680.212,454.748 688.927,465.336 C765.665,558.828 842.373,652.339 919.112,745.82 L928.829,740.209 C953.334,726.067 968.571,699.689 968.571,671.386 L968.55,352.614 C968.55,324.311 953.324,297.933 928.819,283.802 L551.731,66.089 C532,51.971 492,51.971 472.259,66.089 z" fill="url(#Gradient_1)" id="Shape"/>
    <path d="M628.435,307.329 C626.397,309.5 623.775,311.169 621.287,312.858 C611.558,319.443 601.123,323.673 590.995,322.597 C581.021,322.116 572.92,321.614 565.721,317.815 C553.893,311.537 543.581,303.386 537.99,290.749 C535.102,284.236 533.258,277.293 532.511,270.135 C532.5,269.92 532.47,269.704 532.48,269.489 C533.217,257.426 535.675,245.875 543.765,236.361 C546.971,232.592 550.37,228.885 554.18,225.752 C557.109,223.304 560.632,221.348 564.216,219.945 C573.555,216.228 583.417,214.333 593.443,215.286 C600.949,215.982 608.343,218.276 614.856,222.239 C622.444,226.888 629.285,232.551 633.801,240.457 C635.941,244.195 637.856,248.046 639.771,251.896 C642.014,256.443 642.669,261.461 642.956,266.376 C643.878,281.993 639.228,295.839 628.435,307.329 z" fill="#FEF9E7" id="Shape"/>
  </g>
</svg>
