<?xml version="1.0" encoding="UTF-8"?>
<!DOCTYPE svg PUBLIC "-//W3C//DTD SVG 1.1//EN" "http://www.w3.org/Graphics/SVG/1.1/DTD/svg11.dtd">
<svg version="1.1" xmlns="http://www.w3.org/2000/svg" xmlns:xlink="http://www.w3.org/1999/xlink" x="0" y="0" width="100" height="100" viewBox="0, 0, 100, 100">
  <defs>
    <linearGradient id="Gradient_1" gradientUnits="userSpaceOnUse" x1="50" y1="9.925" x2="50" y2="89.925">
      <stop offset="0" stop-color="#9C7100"/>
      <stop offset="0.565" stop-color="#C3DE00"/>
      <stop offset="1" stop-color="#CDFA00"/>
    </linearGradient>
  </defs>
  <g id="Layer_1">
    <path d="M50.643,2.075 L52.394,2.08 C57.854,3.533 55.616,2.612 59.27,4.409 L88.729,21.417 C94.465,24.728 98,30.849 98,37.473 L98,62.377 C98,69.001 94.466,75.123 88.729,78.433 L59.27,95.441 C53.535,98.753 46.468,98.753 40.73,95.441 L11.271,78.433 C9.946,77.608 10.548,78.031 9.45,77.186 L6.333,74.197 C3.265,71.001 2.282,66.626 2,62.377 L2,37.473 C2,30.849 5.534,24.727 11.27,21.417 L40.73,4.409 C44.098,2.362 46.838,2.16 50.643,2.075 z" fill="#FFFFFF"/>
    <path d="M90,62.377 C90,66.143 87.991,69.623 84.73,71.505 L55.27,88.513 C52.01,90.395 47.992,90.395 44.73,88.513 L15.27,71.504 C12.01,69.623 10,66.143 10,62.377 L10,37.473 C10,33.707 12.009,30.227 15.27,28.345 L44.73,11.337 C47.99,9.455 52.008,9.455 55.27,11.337 L84.73,28.346 C87.99,30.227 90,33.707 90,37.473 L90,62.377 z M46.895,15.088 L17.435,32.096 C15.521,33.201 14.33,35.262 14.33,37.473 L14.332,58.633 C20.433,51.203 26.533,43.773 32.634,36.342 C33.541,35.283 34.786,35.283 35.805,36.343 C42.562,44.576 52.698,56.925 66.213,73.39 L53.459,55.797 L61.35,46.283 C62.03,45.455 63.142,45.452 63.822,46.279 C69.818,53.583 75.81,60.889 81.806,68.192 L82.565,67.754 C84.479,66.649 85.67,64.588 85.67,62.377 L85.668,37.473 C85.668,35.262 84.478,33.201 82.564,32.097 L53.104,15.088 C51.562,13.985 48.438,13.985 46.895,15.088 z" fill="url(#Gradient_1)" id="Shape"/>
    <path d="M59.096,34.01 C58.937,34.18 58.732,34.31 58.538,34.442 C57.778,34.956 56.963,35.287 56.171,35.203 C55.392,35.165 54.759,35.126 54.197,34.829 C53.273,34.339 52.467,33.702 52.03,32.715 C51.805,32.206 51.661,31.664 51.602,31.104 C51.602,31.088 51.599,31.071 51.6,31.054 C51.658,30.111 51.85,29.209 52.482,28.466 C52.732,28.171 52.998,27.882 53.295,27.637 C53.524,27.446 53.799,27.293 54.079,27.183 C54.809,26.893 55.579,26.745 56.363,26.819 C56.949,26.874 57.527,27.053 58.036,27.362 C58.628,27.726 59.163,28.168 59.516,28.786 C59.683,29.078 59.832,29.379 59.982,29.679 C60.157,30.035 60.209,30.427 60.231,30.811 C60.303,32.031 59.94,33.112 59.096,34.01 z" fill="#FBAB20" id="Shape"/>
  </g>
</svg>
