<?xml version="1.0" encoding="UTF-8"?>
<!DOCTYPE svg PUBLIC "-//W3C//DTD SVG 1.1//EN" "http://www.w3.org/Graphics/SVG/1.1/DTD/svg11.dtd">
<svg version="1.1" xmlns="http://www.w3.org/2000/svg" xmlns:xlink="http://www.w3.org/1999/xlink" x="0" y="0" width="100" height="100" viewBox="0, 0, 100, 100">
  <defs>
    <linearGradient id="Gradient_1" gradientUnits="userSpaceOnUse" x1="50" y1="0" x2="50" y2="100">
      <stop offset="0" stop-color="#613583"/>
      <stop offset="0.565" stop-color="#813D9C"/>
      <stop offset="1" stop-color="#9141AC"/>
    </linearGradient>
  </defs>
  <g id="Layer_1">
    <g>
      <path d="M100,65.565 C100,70.272 97.489,74.622 93.412,76.975 L56.587,98.235 C52.512,100.588 47.49,100.588 43.413,98.235 L6.588,76.974 C2.513,74.622 0,70.272 0,65.565 L0,34.435 C0,29.728 2.511,25.378 6.588,23.025 L43.413,1.765 C47.488,-0.588 52.51,-0.588 56.587,1.765 L93.412,23.026 C97.487,25.378 100,29.728 100,34.435 L100,65.565 z M46.119,6.454 L9.294,27.714 C6.901,29.095 5.413,31.671 5.413,34.435 L5.415,60.885 C13.041,51.597 20.666,42.309 28.292,33.021 C29.426,31.698 30.982,31.698 32.256,33.022 C40.703,43.313 53.373,58.749 70.266,79.331 L54.323,57.34 L64.187,45.447 C65.037,44.412 66.427,44.409 67.278,45.443 C74.772,54.573 82.263,63.705 89.757,72.834 L90.706,72.286 C93.099,70.905 94.587,68.329 94.587,65.565 L94.585,34.435 C94.585,31.671 93.098,29.095 90.705,27.715 L53.88,6.454 C51.953,5.075 48.047,5.075 46.119,6.454 z" fill="url(#Gradient_1)" id="Shape"/>
      <path d="M61.371,30.013 C61.172,30.225 60.916,30.388 60.673,30.553 C59.722,31.196 58.703,31.609 57.714,31.504 C56.74,31.457 55.949,31.408 55.246,31.037 C54.091,30.424 53.084,29.628 52.538,28.393 C52.256,27.757 52.076,27.079 52.003,26.38 C52.002,26.359 51.999,26.338 52,26.317 C52.072,25.139 52.312,24.011 53.102,23.082 C53.415,22.714 53.747,22.352 54.119,22.046 C54.405,21.807 54.749,21.616 55.099,21.479 C56.011,21.116 56.974,20.931 57.953,21.024 C58.686,21.092 59.408,21.316 60.045,21.703 C60.786,22.157 61.454,22.71 61.895,23.482 C62.104,23.847 62.291,24.223 62.478,24.599 C62.697,25.043 62.761,25.533 62.789,26.013 C62.879,27.538 62.425,28.891 61.371,30.013 z" fill="#9141AC" id="Shape"/>
    </g>
  </g>
</svg>
